<svg id="Layer_1" fill="#7f7f7f" data-name="Layer 1" xmlns="http://www.w3.org/2000/svg" viewBox="0 0 278.88 80"><path d="M215.77,521.85a25,25,0,1,0,25,25A25,25,0,0,0,215.77,521.85Zm0,40a15,15,0,1,1,15-15A15,15,0,0,1,215.77,561.85Z" transform="translate(-190.77 -491.85)"/><rect x="40" y="30" width="10" height="50"/><path d="M265.77,506.85a15,15,0,0,1-15,15,5,5,0,0,0,0-10,10,10,0,0,1-.57-20h.57a5.72,5.72,0,0,1,.59,0A15,15,0,0,1,265.77,506.85Z" transform="translate(-190.77 -491.85)"/><path d="M297.47,526.39a18.45,18.45,0,0,1,6.3,11.69h-9.52a10.29,10.29,0,0,0-3.39-6.4,10.85,10.85,0,0,0-7.37-2.42,8.6,8.6,0,0,0-5.86,1.81,6.15,6.15,0,0,0-2.07,4.89,4.83,4.83,0,0,0,1.49,3.7,10.36,10.36,0,0,0,3.75,2.21,62.43,62.43,0,0,0,6.4,1.76,65.53,65.53,0,0,1,8.86,2.56,14.4,14.4,0,0,1,5.82,4.19,11.72,11.72,0,0,1,2.42,7.8,12.16,12.16,0,0,1-4.63,9.88q-4.62,3.8-12.47,3.79-9.09,0-14.69-4.23a17.41,17.41,0,0,1-6.74-11.82h9.79a9.21,9.21,0,0,0,3.52,6.44,12.58,12.58,0,0,0,8.12,2.47,8.06,8.06,0,0,0,5.68-1.9A6.22,6.22,0,0,0,295,558a5.31,5.31,0,0,0-1.59-4.06,11,11,0,0,0-4-2.34,57.14,57.14,0,0,0-6.53-1.72,70.4,70.4,0,0,1-8.59-2.47,13.38,13.38,0,0,1-5.65-4,11.32,11.32,0,0,1-2.33-7.54,12.38,12.38,0,0,1,4.63-10q4.62-3.83,12.83-3.83Q292.31,522,297.47,526.39Z" transform="translate(-190.77 -491.85)"/><path d="M351.57,527a21.5,21.5,0,0,1,7.67,13.54H348.57a11.38,11.38,0,0,0-4.28-7.19,13.59,13.59,0,0,0-8.5-2.6,12.79,12.79,0,0,0-9.71,4.1q-3.87,4.1-3.88,12T326.08,559a12.75,12.75,0,0,0,9.71,4.14,13.43,13.43,0,0,0,8.5-2.64,11.6,11.6,0,0,0,4.28-7.24h10.67a21.72,21.72,0,0,1-7.67,13.59q-6.18,5-15.61,5a25.38,25.38,0,0,1-12.48-3,21.33,21.33,0,0,1-8.51-8.64,30.13,30.13,0,0,1,0-26.54,21.33,21.33,0,0,1,8.51-8.64A25.38,25.38,0,0,1,336,522Q345.4,522,351.57,527Z" transform="translate(-190.77 -491.85)"/><path d="M413.74,548.92H376.35q.27,7.5,4.14,11.11a13.54,13.54,0,0,0,9.62,3.62,14,14,0,0,0,8.51-2.56,10.55,10.55,0,0,0,4.27-6.79h10.76a20.64,20.64,0,0,1-12.08,15.3,26.28,26.28,0,0,1-11,2.25,25.33,25.33,0,0,1-12.48-3,21.27,21.27,0,0,1-8.51-8.64,30,30,0,0,1,0-26.54,21.27,21.27,0,0,1,8.51-8.64A27.64,27.64,0,0,1,403,525a20.67,20.67,0,0,1,8.21,8.11,23.31,23.31,0,0,1,2.86,11.51A23.73,23.73,0,0,1,413.74,548.92Zm-11.42-12.56a11.28,11.28,0,0,0-4.94-4.76,15.22,15.22,0,0,0-6.83-1.55,14.13,14.13,0,0,0-9.88,3.62q-4,3.62-4.32,10.67H404A14.94,14.94,0,0,0,402.32,536.36Z" transform="translate(-190.77 -491.85)"/><path d="M464.53,527.32q5.12,5.46,5.12,15.61v28.3h-10V544q0-6.53-3.36-10.09t-9.17-3.57a12.6,12.6,0,0,0-9.61,3.83q-3.61,3.84-3.62,11.25v25.83h-10V522.64h10v10.67a16.34,16.34,0,0,1,6.53-8.46,18.89,18.89,0,0,1,10.58-3Q459.41,521.85,464.53,527.32Z" transform="translate(-190.77 -491.85)"/></svg>
